<svg width="140" height="40" viewBox="0 0 140 40" fill="none" xmlns="http://www.w3.org/2000/svg">
<path d="M124.953 17.6297H62.4767C20.398 17.6297 0 22.916 0 22.916C41.5321 18.489 83.4152 18.489 124.947 22.916H128.394V17.6297H124.953Z" fill="#00C1C6"/>
<path d="M48.016 26.5313C48.434 26.4863 48.8542 26.592 49.2015 26.8294C49.5488 27.0668 49.8005 27.4205 49.9114 27.827H50.9889C50.7137 26.3329 49.6189 25.5117 48.016 25.5117C47.5951 25.4991 47.1759 25.5714 46.7834 25.7243C46.3908 25.8771 46.0328 26.1075 45.7306 26.4016C45.4285 26.6957 45.1883 27.0476 45.0242 27.4366C44.8602 27.8255 44.7756 28.2435 44.7756 28.6657C44.7756 29.088 44.8602 29.506 45.0242 29.8949C45.1883 30.2838 45.4285 30.6358 45.7306 30.9299C46.0328 31.224 46.3908 31.4543 46.7834 31.6072C47.1759 31.76 47.5951 31.8323 48.016 31.8198C49.6189 31.8198 50.7137 30.9986 50.9889 29.5039H49.9114C49.8006 29.9106 49.549 30.2643 49.2016 30.5019C48.8543 30.7394 48.434 30.8451 48.016 30.8001C47.7336 30.8047 47.4531 30.7529 47.1909 30.6477C46.9286 30.5425 46.6898 30.386 46.4885 30.1873C46.2872 29.9887 46.1273 29.7518 46.0181 29.4906C45.909 29.2294 45.8528 28.949 45.8528 28.6657C45.8528 28.3825 45.909 28.1021 46.0181 27.8409C46.1273 27.5796 46.2872 27.3428 46.4885 27.1441C46.6898 26.9455 46.9286 26.789 47.1909 26.6838C47.4531 26.5786 47.7336 26.5268 48.016 26.5313Z" fill="#F6FFFF"/>
<path d="M58.8422 25.5117C58.2236 25.5283 57.6237 25.7275 57.1174 26.0842C56.6111 26.441 56.2209 26.9395 55.9957 27.5174C55.7705 28.0953 55.7201 28.727 55.851 29.3334C55.9819 29.9399 56.2882 30.4942 56.7316 30.927C57.175 31.3598 57.7358 31.6519 58.3439 31.7669C58.952 31.8818 59.5804 31.8144 60.1505 31.5731C60.7205 31.3318 61.207 30.9273 61.5491 30.4103C61.8912 29.8932 62.0736 29.2865 62.0736 28.666C62.0908 28.2398 62.0183 27.8147 61.8608 27.4185C61.7034 27.0222 61.4644 26.6636 61.1596 26.3661C60.8548 26.0685 60.4909 25.8387 60.0916 25.6915C59.6924 25.5443 59.2667 25.483 58.8422 25.5117V25.5117ZM58.8422 30.8001C58.4205 30.8033 58.0073 30.6808 57.655 30.4482C57.3028 30.2156 57.0275 29.8833 56.8639 29.4935C56.7003 29.1037 56.6559 28.674 56.7362 28.2588C56.8166 27.8436 57.0181 27.4618 57.3152 27.1616C57.6124 26.8615 57.9917 26.6566 58.4051 26.573C58.8186 26.4894 59.2475 26.5308 59.6374 26.6919C60.0273 26.8531 60.3607 27.1268 60.5953 27.4782C60.8299 27.8297 60.955 28.2431 60.9549 28.666C60.9761 28.9504 60.9362 29.236 60.8377 29.5035C60.7392 29.771 60.5846 30.0142 60.3843 30.2165C60.1839 30.4189 59.9426 30.5757 59.6765 30.6764C59.4105 30.7771 59.1259 30.8193 58.8422 30.8001V30.8001Z" fill="#F6FFFF"/>
<path d="M71.4825 29.1326C71.4825 30.2209 70.9644 30.8001 69.8018 30.8001C68.6292 30.8001 68.1127 30.2209 68.1127 29.1326V25.641H67.0007V29.1232C67.0007 30.8431 67.8709 31.8198 69.8012 31.8198C71.7316 31.8198 72.5934 30.8431 72.5934 29.1232V25.641H71.4814L71.4825 29.1326Z" fill="#F6FFFF"/>
<path d="M83.5018 27.7155C83.5018 26.5397 82.8474 25.641 81.2356 25.641H77.9353V31.6905H79.0473V29.7805H81.3974L82.4488 31.6905H83.5691L82.3965 29.5719C82.7505 29.4163 83.0472 29.1538 83.2453 28.821C83.4434 28.4882 83.5331 28.1018 83.5018 27.7155V27.7155ZM81.0811 28.7954H79.0467V26.6261H81.0811C81.9512 26.6261 82.3988 26.9372 82.3988 27.7155C82.3988 28.4938 81.9534 28.7954 81.0811 28.7954V28.7954Z" fill="#F6FFFF"/>
<path d="M92.3548 28.1737L91.3902 28.0868C90.6118 28.0087 90.2009 27.808 90.2009 27.2739C90.2009 26.6953 90.6919 26.4276 91.7021 26.4276C92.6067 26.4276 93.1671 26.644 93.3144 27.3263H94.3402C94.2452 25.7798 92.9792 25.5117 91.7549 25.5117C89.8645 25.5117 89.0828 26.1595 89.0828 27.2739C89.0828 28.3544 89.7989 28.8729 91.16 29.0022L92.1341 29.0886C92.9436 29.1667 93.3144 29.3562 93.3144 29.9354C93.3144 30.6357 92.7201 30.9033 91.6948 30.9033C90.8147 30.9033 90.1431 30.7132 90.0052 30.0046H88.98C89.0828 31.6029 90.4711 31.8192 91.5992 31.8192H91.6076C93.633 31.8192 94.4431 31.119 94.4431 29.9182C94.4409 28.7781 93.7509 28.3031 92.3548 28.1737Z" fill="#F6FFFF"/>
<path d="M100.122 31.6905H105.207V30.7137H101.234V29.1477H105.034V28.2668H101.234V26.6161H105.207V25.641H100.122V31.6905Z" fill="#F6FFFF"/>
<path d="M114.266 28.1737L113.301 28.0868C112.525 28.0087 112.112 27.808 112.112 27.2739C112.112 26.6953 112.603 26.4276 113.613 26.4276C114.518 26.4276 115.079 26.644 115.226 27.3263H116.251C116.157 25.7798 114.889 25.5117 113.665 25.5117C111.778 25.5117 110.996 26.1595 110.996 27.2739C110.996 28.3544 111.711 28.8729 113.074 29.0022L114.048 29.0886C114.858 29.1667 115.229 29.3562 115.229 29.9354C115.229 30.6357 114.633 30.9033 113.607 30.9033C112.729 30.9033 112.057 30.7132 111.919 30.0046H110.894C110.996 31.6029 112.384 31.8192 113.513 31.8192H113.522C115.547 31.8192 116.357 31.119 116.357 29.9182C116.352 28.7781 115.663 28.3031 114.266 28.1737Z" fill="#F6FFFF"/>
<path d="M126.536 19.2799C126.184 19.568 125.791 19.8002 125.369 19.9684V20.5817C125.791 20.7499 126.185 20.9822 126.536 21.2702C127.773 22.3026 129.316 22.8939 130.924 22.9511L131.091 22.9555L136.497 21.937C137.718 21.7065 138.898 21.2956 139.999 20.7177V19.8335C138.898 19.2557 137.718 18.8448 136.497 18.6143L131.091 17.5957L130.924 17.6002C129.316 17.6571 127.773 18.248 126.536 19.2799Z" fill="#F6FFFF"/>
<path d="M132.651 17.8828L132.644 17.8866H132.651V17.8828Z" fill="#F6FFFF"/>
<path d="M131.958 21.5194C132.552 21.5193 133.144 21.4515 133.723 21.317L136.419 20.691C136.487 20.6771 136.55 20.6469 136.603 20.6029V20.6029C136.666 20.5517 136.712 20.4839 136.737 20.4074C136.763 20.3309 136.766 20.2487 136.746 20.1704C136.727 20.0922 136.686 20.021 136.628 19.9651C136.57 19.9092 136.498 19.871 136.419 19.8547L133.723 19.2286C133.145 19.0942 132.552 19.0263 131.958 19.0263V19.0263V21.5194V21.5194Z" fill="#2D0091"/>
<path d="M129.807 19.3519L128.932 19.7577C128.826 19.7953 128.733 19.865 128.668 19.9573C128.603 20.0496 128.568 20.16 128.568 20.2731C128.568 20.3863 128.603 20.4966 128.668 20.5889C128.733 20.6813 128.826 20.751 128.932 20.7885L129.807 21.1944C130.269 21.4085 130.772 21.5194 131.282 21.5194V19.0263C130.772 19.0263 130.269 19.1376 129.807 19.3524L129.807 19.3519Z" fill="#2D0091"/>
<path d="M120.365 18.3545C123.253 18.9834 126.248 18.9069 129.1 18.1315L131.089 17.5913L125.726 16.4517L120.365 18.3545Z" fill="#FF4D1D"/>
<path d="M120.365 22.1918L125.726 24.0923L131.089 22.9527L129.1 22.4125C126.248 21.6371 123.253 21.5606 120.365 22.1895V22.1918Z" fill="#FF4D1D"/>
<path d="M128.635 13.1547C128.557 13.9253 128.764 14.6978 129.216 15.326C129.668 15.9542 130.334 16.3946 131.088 16.5638L131.954 13.8794C132.096 13.5057 132.09 13.092 131.937 12.7226L129.324 6.36154L128.635 13.1547Z" fill="#FF4D1D"/>
<path d="M121.929 0.547924L124.685 11.7108C124.948 12.7757 125.495 13.7484 126.269 14.5239L127.503 15.7616L131.085 16.5655L121.929 0.547924Z" fill="#F6FFFF"/>
<path d="M131.088 23.9819C130.334 24.1511 129.668 24.5916 129.216 25.2199C128.764 25.8482 128.557 26.6208 128.635 27.3916L129.32 34.1847L131.933 27.8231C132.011 27.6317 132.052 27.4268 132.052 27.2199C132.051 27.0307 132.017 26.8432 131.95 26.6663V26.6663L131.083 23.9819H131.088Z" fill="#FF4D1D"/>
<path d="M121.929 39.9994L124.685 28.8366C124.948 27.7717 125.495 26.7989 126.269 26.0235L127.503 24.7858L131.085 23.9819L121.929 39.9994Z" fill="#F6FFFF"/>
</svg>
